<?xml version="1.0" standalone="no"?>
<!DOCTYPE svg PUBLIC "-//W3C//DTD SVG 20010904//EN"
 "http://www.w3.org/TR/2001/REC-SVG-20010904/DTD/svg10.dtd">
<svg version="1.0" xmlns="http://www.w3.org/2000/svg"
 width="1280.000000pt" height="1280.000000pt" viewBox="0 0 1280.000000 1280.000000"
 preserveAspectRatio="xMidYMid meet">
<metadata>
Created by potrace 1.15, written by Peter Selinger 2001-2017
</metadata>
<g transform="translate(0.000000,1280.000000) scale(0.100000,-0.100000)"
fill="#000000" stroke="none">
<path d="M2479 12009 c-87 -13 -312 -66 -397 -95 -284 -94 -596 -324 -786
-578 -177 -236 -246 -384 -311 -666 -19 -80 -39 -189 -44 -242 -15 -133 -15
-7896 -1 -8022 24 -209 99 -472 179 -630 105 -206 294 -437 466 -571 230 -179
389 -258 654 -325 258 -65 -91 -60 4296 -60 4372 0 4031 -5 4290 59 230 57
372 121 569 259 234 164 428 390 556 647 92 185 158 422 180 647 7 69 10 1412
7 4058 -3 3717 -4 3960 -20 4040 -73 350 -141 521 -304 752 -104 149 -224 273
-364 377 -217 163 -371 237 -609 297 -279 69 80 64 -4320 63 -2192 -1 -4010
-5 -4041 -10z m7354 -1429 c260 -30 537 -213 677 -448 57 -97 107 -225 120
-307 7 -49 10 -1075 8 -3425 l-3 -3355 -29 -75 c-102 -269 -258 -450 -481
-560 -123 -60 -177 -78 -274 -91 -50 -6 -1237 -9 -3401 -7 l-3325 3 -104 37
c-304 109 -510 316 -618 623 l-28 80 0 3390 0 3390 23 70 c57 169 135 295 254
411 91 89 164 140 272 189 101 45 166 65 244 75 103 12 6560 12 6665 0z"/>
<path d="M4011 8100 c-120 -30 -292 -270 -376 -526 -48 -145 -89 -376 -134
-758 -11 -93 -24 -172 -28 -176 -18 -16 -113 -32 -199 -35 -50 -1 -107 -8
-127 -14 -72 -24 -100 -105 -63 -182 33 -71 137 -100 286 -81 41 5 76 9 76 8
6 -5 -50 -463 -66 -546 -77 -392 -278 -685 -556 -811 -80 -36 -107 -73 -101
-137 9 -81 77 -123 191 -116 68 4 133 28 223 82 202 122 364 303 465 520 65
142 129 415 143 608 15 216 43 466 52 475 7 7 58 12 126 13 108 1 116 3 155
29 88 61 97 179 17 231 -42 28 -142 44 -210 35 -33 -4 -60 -7 -62 -6 -10 11
37 369 62 467 8 30 16 78 19 105 9 97 74 289 143 416 l35 66 42 -14 c158 -55
286 115 193 256 -50 76 -195 119 -306 91z"/>
<path d="M5481 7649 c-115 -24 -121 -204 -8 -257 120 -57 296 -317 370 -547
38 -120 51 -214 50 -380 -1 -320 -57 -471 -350 -950 -44 -71 -102 -166 -128
-210 -58 -94 -78 -159 -64 -208 13 -49 44 -84 85 -97 72 -24 129 10 223 135
61 80 134 186 168 241 223 362 289 510 339 757 25 124 26 144 21 317 -7 216
-23 317 -78 483 -89 268 -276 545 -446 660 -74 50 -129 67 -182 56z"/>
<path d="M4625 7493 c-16 -8 -43 -27 -58 -42 -46 -43 -144 -184 -183 -263 -19
-40 -40 -81 -45 -91 -32 -59 -119 -337 -139 -442 -51 -270 -53 -284 -54 -440
-2 -242 32 -362 129 -459 83 -83 184 -95 302 -36 95 48 134 128 98 204 -20 41
-49 58 -103 61 -52 2 -66 20 -83 107 -16 85 -13 388 6 508 30 191 93 406 145
498 30 52 31 52 55 36 44 -29 128 -14 164 30 7 8 18 47 24 85 20 130 -20 219
-112 250 -47 15 -110 13 -146 -6z"/>
<path d="M8273 7391 c-54 -34 -82 -176 -49 -254 31 -76 127 -93 208 -36 32 23
88 134 88 175 0 40 -32 90 -71 110 -52 26 -138 29 -176 5z"/>
<path d="M7645 7351 c-247 -70 -429 -277 -428 -482 2 -148 61 -258 280 -522
84 -101 144 -211 145 -266 1 -53 -25 -96 -75 -126 -52 -30 -85 -31 -135 -6
-64 33 -83 61 -87 132 -6 99 -50 143 -138 136 -112 -10 -153 -119 -107 -285
41 -149 122 -226 281 -267 79 -21 151 -16 269 20 172 51 281 158 306 298 l6
38 32 -36 c40 -47 93 -60 181 -44 48 8 70 18 94 41 17 17 31 38 31 46 0 11 11
3 30 -20 42 -51 81 -60 182 -43 83 15 121 37 134 78 5 17 10 15 48 -21 53 -51
69 -59 163 -78 192 -40 357 37 357 167 0 40 -5 54 -29 79 -44 46 -106 66 -167
53 l-50 -10 7 66 c3 36 16 104 27 151 28 117 20 250 -20 330 -23 47 -35 59
-85 84 -63 31 -126 38 -153 15 -10 -8 -19 -10 -21 -4 -2 6 -11 26 -21 45 -33
68 -150 101 -227 65 -48 -23 -60 -55 -57 -149 3 -93 -15 -246 -30 -246 -5 0
-6 19 -2 48 12 77 9 135 -10 170 -23 44 -92 76 -167 76 -105 2 -140 -39 -146
-169 -3 -88 -14 -158 -45 -310 -12 -55 -29 -143 -38 -195 -18 -96 -21 -98 -38
-24 -17 75 -117 244 -208 354 -48 58 -102 128 -120 157 -19 28 -38 54 -43 58
-5 3 -19 31 -31 61 -18 49 -19 62 -9 93 15 46 110 140 171 169 61 28 72 28 61
0 -13 -37 -6 -99 14 -127 30 -39 69 -54 141 -53 131 2 177 56 177 207 0 88 -1
92 -35 140 -75 104 -259 151 -415 106z"/>
<path d="M9485 7025 c-70 -25 -103 -89 -83 -163 5 -18 61 -126 124 -239 l115
-205 -73 -96 c-40 -54 -102 -132 -136 -175 -35 -43 -68 -91 -72 -107 -16 -56
24 -131 87 -161 86 -42 144 -24 212 66 25 34 71 94 101 134 l55 71 18 -22 c37
-47 126 -185 157 -243 40 -76 62 -100 118 -126 35 -17 55 -21 103 -16 33 3 71
13 85 22 53 34 69 127 35 200 -20 43 -124 200 -239 362 l-73 101 46 64 c25 34
84 119 132 188 82 118 87 128 87 178 1 49 -2 56 -36 87 -60 55 -150 70 -223
36 -48 -22 -66 -42 -137 -149 l-55 -82 -56 102 c-73 135 -82 147 -131 169 -49
22 -106 23 -161 4z"/>
<path d="M5285 6977 c-40 -19 -52 -34 -75 -101 -29 -84 -101 -246 -110 -246
-4 0 -31 35 -59 78 -73 112 -109 148 -161 162 -48 13 -118 8 -149 -11 -71 -45
-70 -156 3 -232 24 -25 75 -101 115 -169 l72 -122 -18 -41 c-9 -22 -26 -51
-36 -65 -47 -64 -151 -228 -159 -253 -24 -66 20 -138 95 -158 33 -9 53 -8 105
6 80 22 106 44 172 145 29 44 54 79 56 78 1 -2 16 -21 34 -43 17 -22 56 -65
86 -96 71 -74 96 -79 205 -42 100 34 124 60 123 133 0 43 -6 54 -44 97 -24 26
-55 54 -69 62 -30 16 -124 104 -152 143 l-20 27 59 113 c33 62 76 156 97 208
20 52 43 108 51 124 40 82 22 160 -44 192 -48 23 -138 28 -177 11z"/>
<path d="M6979 6756 c-8 -9 -182 -28 -319 -35 -156 -9 -193 -22 -217 -78 -8
-21 -13 -57 -11 -87 l3 -51 -46 -11 c-25 -7 -56 -17 -67 -23 -64 -34 -70 -162
-11 -220 39 -39 91 -46 171 -21 117 36 262 62 372 66 120 5 185 25 228 71 18
19 23 36 23 79 0 50 2 54 26 59 32 7 64 39 79 79 25 67 -24 145 -105 165 -44
11 -118 15 -126 7z"/>
</g>
</svg>
